<svg id="visual" viewBox="0 0 900 600" width="900" height="600" xmlns="http://www.w3.org/2000/svg" xmlns:xlink="http://www.w3.org/1999/xlink" version="1.1"><g><g transform="translate(746 95)"><path d="M107.5 -139.8C124.5 -113.8 113.4 -65.9 113 -26.1C112.6 13.6 123 45.3 118.3 82.4C113.7 119.4 94 161.8 67.9 159.5C41.9 157.2 9.5 110.1 -14.8 83C-39.1 55.8 -55.3 48.5 -67.6 35.2C-80 21.8 -88.5 2.3 -95.6 -27.2C-102.7 -56.7 -108.4 -96.3 -92.2 -122.5C-76.1 -148.6 -38 -161.2 3.6 -165.5C45.2 -169.8 90.5 -165.7 107.5 -139.8Z" fill="#43036e"></path></g><g transform="translate(137 337)"><path d="M109.3 -108.7C144.9 -100.5 179.1 -69 193.1 -28.3C207.2 12.5 201.1 62.5 177.8 102.4C154.4 142.2 113.9 171.8 73.4 174.8C33 177.8 -7.3 154.3 -30.5 127.1C-53.7 99.8 -59.7 68.9 -78.6 42.4C-97.4 15.9 -129 -6.2 -138.6 -37.1C-148.2 -67.9 -135.8 -107.5 -109.1 -117.3C-82.3 -127 -41.1 -106.9 -2.1 -104.4C36.9 -101.8 73.8 -116.9 109.3 -108.7Z" fill="#43036e"></path></g><g transform="translate(613 552)"><path d="M82.7 -88.4C104.2 -80.5 116.7 -51.6 117.5 -24.1C118.3 3.4 107.5 29.6 98 66.4C88.4 103.1 80.2 150.4 55.3 165.1C30.5 179.7 -10.9 161.8 -40.2 138.9C-69.6 115.9 -86.8 88 -95.6 60.9C-104.4 33.8 -104.9 7.6 -109.3 -28.3C-113.7 -64.1 -121.9 -109.7 -104.4 -118.3C-86.8 -126.9 -43.4 -98.7 -6.4 -91C30.6 -83.4 61.1 -96.3 82.7 -88.4Z" fill="#43036e"></path></g></g></svg>