<svg id="visual" viewBox="0 0 960 540" width="960" height="540" xmlns="http://www.w3.org/2000/svg" xmlns:xlink="http://www.w3.org/1999/xlink" version="1.1"><g><g transform="translate(780 517)"><path d="M0 -144L62.5 -129.8L112.6 -89.8L140.4 -32L140.4 32L112.6 89.8L62.5 129.8L0 144L-62.5 129.8L-112.6 89.8L-140.4 32L-140.4 -32L-112.6 -89.8L-62.5 -129.8Z" fill="#1da4e2"></path></g><g transform="translate(223 338)"><path d="M0 -122L52.9 -109.9L95.4 -76.1L118.9 -27.1L118.9 27.1L95.4 76.1L52.9 109.9L0 122L-52.9 109.9L-95.4 76.1L-118.9 27.1L-118.9 -27.1L-95.4 -76.1L-52.9 -109.9Z" fill="#1da4e2"></path></g><g transform="translate(612 60)"><path d="M0 -121L52.5 -109L94.6 -75.4L118 -26.9L118 26.9L94.6 75.4L52.5 109L0 121L-52.5 109L-94.6 75.4L-118 26.9L-118 -26.9L-94.6 -75.4L-52.5 -109Z" fill="#1da4e2"></path></g></g></svg>