<svg id="visual" viewBox="0 0 900 600" width="900" height="600" xmlns="http://www.w3.org/2000/svg" xmlns:xlink="http://www.w3.org/1999/xlink" version="1.1"><g><g transform="translate(12 294)"><path d="M103.8 -119.4C133.9 -98.4 157.4 -65.1 178.7 -20.3C199.9 24.5 218.9 80.9 194 100.6C169.1 120.3 100.2 103.2 52.5 102.5C4.7 101.8 -21.9 117.5 -38.4 109.7C-55 101.9 -61.5 70.6 -87.2 42.4C-112.9 14.3 -157.8 -10.7 -160.3 -33.7C-162.7 -56.7 -122.7 -77.6 -88.9 -98C-55.2 -118.4 -27.6 -138.2 4.6 -143.7C36.8 -149.2 73.6 -140.4 103.8 -119.4Z" stroke="#06df72" fill="none" stroke-width="20"></path></g><g transform="translate(807 163)"><path d="M134.5 -131.7C176.5 -125 214.4 -84.7 207.6 -47.8C200.7 -10.9 149.1 22.7 112.5 45C75.8 67.2 54.1 78.1 33 82C11.9 85.9 -8.5 82.8 -41.2 83.7C-73.9 84.6 -118.7 89.5 -159.8 68.1C-200.9 46.8 -238.2 -0.9 -240.3 -51.6C-242.4 -102.4 -209.3 -156.1 -163.4 -162.2C-117.4 -168.2 -58.7 -126.4 -6.3 -118.9C46.2 -111.5 92.4 -138.3 134.5 -131.7Z" stroke="#06df72" fill="none" stroke-width="20"></path></g></g></svg>