<svg id="visual" viewBox="0 0 900 675" width="900" height="675" xmlns="http://www.w3.org/2000/svg" xmlns:xlink="http://www.w3.org/1999/xlink" version="1.1"><g><g transform="translate(540 150)"><path d="M0 -155.9L67.6 -140.5L121.9 -97.2L152 -34.7L152 34.7L121.9 97.2L67.6 140.5L0 155.9L-67.6 140.5L-121.9 97.2L-152 34.7L-152 -34.7L-121.9 -97.2L-67.6 -140.5Z" fill="#1da4e2"></path></g><g transform="translate(171 458)"><path d="M0 -90L39 -81.1L70.4 -56.1L87.7 -20L87.7 20L70.4 56.1L39 81.1L0 90L-39 81.1L-70.4 56.1L-87.7 20L-87.7 -20L-70.4 -56.1L-39 -81.1Z" fill="#1da4e2"></path></g><g transform="translate(696 597)"><path d="M0 -127L55.1 -114.4L99.3 -79.2L123.8 -28.3L123.8 28.3L99.3 79.2L55.1 114.4L0 127L-55.1 114.4L-99.3 79.2L-123.8 28.3L-123.8 -28.3L-99.3 -79.2L-55.1 -114.4Z" fill="#1da4e2"></path></g></g></svg>