<svg id="visual" viewBox="0 0 900 600" width="900" height="600" xmlns="http://www.w3.org/2000/svg" xmlns:xlink="http://www.w3.org/1999/xlink" version="1.1"><g><g transform="translate(356 273)"><path d="M72.4 -81.7C105.1 -58.9 150.6 -46.7 156.8 -25.6C163 -4.4 129.9 25.8 108.9 63.7C88 101.6 79.1 147.2 58.5 150C38 152.7 5.8 112.6 -35.2 97.4C-76.2 82.2 -125.9 91.8 -158 73.3C-190 54.8 -204.3 8.1 -192.8 -29.9C-181.3 -68 -143.9 -97.4 -107.4 -119.6C-71 -141.8 -35.5 -156.6 -7.8 -147.3C19.9 -138 39.8 -104.6 72.4 -81.7Z" fill="#06df72"></path></g><g transform="translate(897 516)"><path d="M50.5 -50.6C64.4 -48.4 74.1 -31.6 76.5 -14.1C78.9 3.4 73.9 21.6 62.3 30.4C50.6 39.1 32.2 38.4 17.8 39.5C3.5 40.6 -6.7 43.5 -18.4 42.6C-30.1 41.8 -43.3 37.2 -51 27.6C-58.7 18.1 -60.9 3.5 -61.4 -13.8C-61.9 -31.1 -60.8 -51.1 -50.3 -54C-39.8 -56.8 -19.9 -42.4 -0.8 -41.4C18.3 -40.4 36.5 -52.9 50.5 -50.6Z" fill="#06df72"></path></g></g></svg>