<svg id="visual" viewBox="0 0 900 675" width="900" height="675" xmlns="http://www.w3.org/2000/svg" xmlns:xlink="http://www.w3.org/1999/xlink" version="1.1"><g fill="#06df72"><path d="M33.7 19.5L33.7 86.9L-33.7 86.9L-33.7 19.5L-92.2 -14.3L-58.4 -72.7L0 -39L58.4 -72.7L92.2 -14.3Z" transform="translate(100 194)"></path><path d="M14.8 8.6L14.8 38.3L-14.8 38.3L-14.8 8.6L-40.5 -6.3L-25.7 -32L0 -17.1L25.7 -32L40.5 -6.3Z" transform="translate(700 207)"></path><path d="M27.5 15.9L27.5 70.9L-27.5 70.9L-27.5 15.9L-75.2 -11.6L-47.7 -59.3L0 -31.8L47.7 -59.3L75.2 -11.6Z" transform="translate(330 504)"></path><path d="M33.2 19.2L33.2 85.5L-33.2 85.5L-33.2 19.2L-90.7 -14L-57.5 -71.5L0 -38.3L57.5 -71.5L90.7 -14Z" transform="translate(883 463)"></path></g></svg>