<svg id="visual" viewBox="0 0 900 675" width="900" height="675" xmlns="http://www.w3.org/2000/svg" xmlns:xlink="http://www.w3.org/1999/xlink" version="1.1"><g fill="#9900FF"><path d="M33.7 19.5L33.7 86.9L-33.7 86.9L-33.7 19.5L-92.2 -14.3L-58.4 -72.7L0 -39L58.4 -72.7L92.2 -14.3Z" transform="translate(274 480)"></path><path d="M14.8 8.6L14.8 38.3L-14.8 38.3L-14.8 8.6L-40.5 -6.3L-25.7 -32L0 -17.1L25.7 -32L40.5 -6.3Z" transform="translate(584 531)"></path><path d="M18.9 10.9L18.9 48.7L-18.9 48.7L-18.9 10.9L-51.6 -8L-32.7 -40.7L0 -21.8L32.7 -40.7L51.6 -8Z" transform="translate(844 580)"></path><path d="M18.6 10.8L18.6 48L-18.6 48L-18.6 10.8L-50.9 -7.9L-32.3 -40.1L0 -21.5L32.3 -40.1L50.9 -7.9Z" transform="translate(79 146)"></path><path d="M22.7 13.1L22.7 58.4L-22.7 58.4L-22.7 13.1L-61.9 -9.6L-39.3 -48.8L0 -26.2L39.3 -48.8L61.9 -9.6Z" transform="translate(579 247)"></path></g></svg>