<svg id="visual" viewBox="0 0 900 675" width="900" height="675" xmlns="http://www.w3.org/2000/svg" xmlns:xlink="http://www.w3.org/1999/xlink" version="1.1"><g><g transform="translate(413 287)"><path d="M111.4 -126.5C155.9 -95.3 211.7 -71.2 213.4 -40.7C215.1 -10.2 162.7 26.7 133.9 78C105.2 129.3 100 195 67.4 223.6C34.7 252.2 -25.5 243.7 -66.7 214.9C-107.9 186.2 -130.3 137.1 -153.5 91.3C-176.7 45.5 -200.9 2.9 -189.1 -28C-177.2 -58.8 -129.4 -78 -91.9 -110.4C-54.3 -142.8 -27.2 -188.5 3.1 -192.2C33.4 -195.9 66.8 -157.6 111.4 -126.5Z" fill="none" stroke="#06df72" stroke-width="20"></path></g></g></svg>