<svg id="visual" viewBox="0 0 960 540" width="960" height="540" xmlns="http://www.w3.org/2000/svg" xmlns:xlink="http://www.w3.org/1999/xlink" version="1.1"><path d="M0 252L26.7 249C53.3 246 106.7 240 160 226.8C213.3 213.7 266.7 193.3 320 193.2C373.3 193 426.7 213 480 214.3C533.3 215.7 586.7 198.3 640 198.2C693.3 198 746.7 215 800 228.2C853.3 241.3 906.7 250.7 933.3 255.3L960 260L960 541L933.3 541C906.7 541 853.3 541 800 541C746.7 541 693.3 541 640 541C586.7 541 533.3 541 480 541C426.7 541 373.3 541 320 541C266.7 541 213.3 541 160 541C106.7 541 53.3 541 26.7 541L0 541Z" fill="#0062d1"></path><path d="M0 316L26.7 295.7C53.3 275.3 106.7 234.7 160 236.5C213.3 238.3 266.7 282.7 320 288.2C373.3 293.7 426.7 260.3 480 256.3C533.3 252.3 586.7 277.7 640 293.7C693.3 309.7 746.7 316.3 800 312.8C853.3 309.3 906.7 295.7 933.3 288.8L960 282L960 541L933.3 541C906.7 541 853.3 541 800 541C746.7 541 693.3 541 640 541C586.7 541 533.3 541 480 541C426.7 541 373.3 541 320 541C266.7 541 213.3 541 160 541C106.7 541 53.3 541 26.7 541L0 541Z" fill="#0045b3"></path><path d="M0 391L26.7 395C53.3 399 106.7 407 160 401.2C213.3 395.3 266.7 375.7 320 368C373.3 360.3 426.7 364.7 480 363.2C533.3 361.7 586.7 354.3 640 355.2C693.3 356 746.7 365 800 374.7C853.3 384.3 906.7 394.7 933.3 399.8L960 405L960 541L933.3 541C906.7 541 853.3 541 800 541C746.7 541 693.3 541 640 541C586.7 541 533.3 541 480 541C426.7 541 373.3 541 320 541C266.7 541 213.3 541 160 541C106.7 541 53.3 541 26.7 541L0 541Z" fill="#042794"></path><path d="M0 397L26.7 400.8C53.3 404.7 106.7 412.3 160 419.5C213.3 426.7 266.7 433.3 320 441.8C373.3 450.3 426.7 460.7 480 460.5C533.3 460.3 586.7 449.7 640 450.8C693.3 452 746.7 465 800 466.3C853.3 467.7 906.7 457.3 933.3 452.2L960 447L960 541L933.3 541C906.7 541 853.3 541 800 541C746.7 541 693.3 541 640 541C586.7 541 533.3 541 480 541C426.7 541 373.3 541 320 541C266.7 541 213.3 541 160 541C106.7 541 53.3 541 26.7 541L0 541Z" fill="#040475"></path></svg>